<?xml version="1.0" encoding="UTF-8" standalone="no"?>
<svg xmlns:ffdec="https://www.free-decompiler.com/flash" xmlns:xlink="http://www.w3.org/1999/xlink" ffdec:objectType="shape" height="450.0px" width="600.0px" xmlns="http://www.w3.org/2000/svg">
  <g transform="matrix(1.0, 0.0, 0.0, 1.0, 0.0, 450.0)">
    <path d="M400.0 -450.0 L420.0 -450.0 420.0 0.0 400.0 0.0 400.0 -450.0 M500.0 -450.0 L520.0 -450.0 520.0 0.0 500.0 0.0 500.0 -450.0 M0.0 -450.0 L20.0 -450.0 20.0 0.0 0.0 0.0 0.0 -450.0 M100.0 -450.0 L120.0 -450.0 120.0 0.0 100.0 0.0 100.0 -450.0 M200.0 -450.0 L220.0 -450.0 220.0 0.0 200.0 0.0 200.0 -450.0 M300.0 -450.0 L320.0 -450.0 320.0 0.0 300.0 0.0 300.0 -450.0" fill="#f7f7f7" fill-rule="evenodd" stroke="none"/>
    <path d="M420.0 -450.0 L420.0 0.0 M400.0 0.0 L400.0 -450.0 M520.0 -450.0 L520.0 0.0 M500.0 0.0 L500.0 -450.0 M20.0 -450.0 L20.0 0.0 M0.0 0.0 L0.0 -450.0 M120.0 -450.0 L120.0 0.0 M100.0 0.0 L100.0 -450.0 M220.0 -450.0 L220.0 0.0 M200.0 0.0 L200.0 -450.0 M320.0 -450.0 L320.0 0.0 M300.0 0.0 L300.0 -450.0 M600.0 0.0 L600.0 -450.0 M40.0 0.0 L40.0 -450.0 M140.0 0.0 L140.0 -450.0 M160.0 0.0 L160.0 -450.0 M180.0 0.0 L180.0 -450.0 M60.0 0.0 L60.0 -450.0 M80.0 0.0 L80.0 -450.0 M280.0 0.0 L280.0 -450.0 M260.0 0.0 L260.0 -450.0 M380.0 0.0 L380.0 -450.0 M360.0 0.0 L360.0 -450.0 M340.0 0.0 L340.0 -450.0 M240.0 0.0 L240.0 -450.0 M480.0 0.0 L480.0 -450.0 M460.0 0.0 L460.0 -450.0 M580.0 0.0 L580.0 -450.0 M560.0 0.0 L560.0 -450.0 M540.0 0.0 L540.0 -450.0 M440.0 0.0 L440.0 -450.0" ffdec:has-small-stroke="true" ffdec:original-stroke-width="0.05" fill="none" stroke="#dfdfdf" stroke-linecap="round" stroke-linejoin="round" stroke-width="1.0"/>
  </g>
</svg>
